<svg version="1.1" xmlns="http://www.w3.org/2000/svg" xmlns:xlink="http://www.w3.org/1999/xlink" width="1024.5" height="224.5"><defs></defs><g transform="translate(0,0)"><g><rect fill="#FFFFFF" stroke="none" x="0" y="0" width="1024.5" height="224.5"></rect></g><g transform="translate(0,0) matrix(1,0,0,1,60,60)"><g><g transform="translate(0,0) scale(9.4,1.4)"><g><path fill="#FFFFFF" stroke="none" d="M 0 0 L 100 0 Q 100 0 100 0 L 100 100 Q 100 100 100 100 L 0 100 Q 0 100 0 100 L 0 0 Q 0 0 0 0 Z"></path><g transform="scale(0.10638297872340426,0.7142857142857143)"><path fill="none" stroke="#333333" d="M 0 0 L 940 0 Q 940 0 940 0 L 940 140 Q 940 140 940 140 L 0 140 Q 0 140 0 140 L 0 0 Q 0 0 0 0 Z" stroke-miterlimit="10" stroke-width="2"></path></g></g><g><g transform="scale(0.10638297872340426,0.7142857142857143)"><path fill="rgb(0,0,0)" stroke="none" d="M 18.8 2.8 L 18.8 135.79999999999998 L 911.8000000000001 135.79999999999998 L 911.8000000000001 4.199999999999999 L 28.200000000000003 4.199999999999999 Z" fill-opacity="0" opacity="0"></path><path fill="none" stroke="#3C7626" d="M 18.8 2.8 M 18.8 2.8 L 18.8 6.8 M 18.8 6.8 M 18.8 8.8 L 18.8 12.8 M 18.8 12.8 M 18.8 14.8 L 18.8 18.8 M 18.8 18.8 M 18.8 20.8 L 18.8 24.8 M 18.8 24.8 M 18.8 26.8 L 18.8 30.8 M 18.8 30.8 M 18.8 32.8 L 18.8 36.8 M 18.8 36.8 M 18.8 38.8 L 18.8 42.8 M 18.8 42.8 M 18.8 44.8 L 18.8 48.8 M 18.8 48.8 M 18.8 50.8 L 18.8 54.8 M 18.8 54.8 M 18.8 56.8 L 18.8 60.8 M 18.8 60.8 M 18.8 62.8 L 18.8 66.8 M 18.8 66.8 M 18.8 68.8 L 18.8 72.8 M 18.8 72.8 M 18.8 74.8 L 18.8 78.8 M 18.8 78.8 M 18.8 80.8 L 18.8 84.8 M 18.8 84.8 M 18.8 86.8 L 18.8 90.8 M 18.8 90.8 M 18.8 92.8 L 18.8 96.8 M 18.8 96.8 M 18.8 98.8 L 18.8 102.8 M 18.8 102.8 M 18.8 104.8 L 18.8 108.8 M 18.8 108.8 M 18.8 110.8 L 18.8 114.8 M 18.8 114.8 M 18.8 116.8 L 18.8 120.8 M 18.8 120.8 M 18.8 122.8 L 18.8 126.8 M 18.8 126.8 M 18.8 128.8 L 18.8 132.8 M 18.8 132.8 M 18.8 134.8 L 18.8 135.79999999999998 L 21.80000000000003 135.79999999999998 M 21.80000000000003 135.79999999999998 M 23.80000000000003 135.79999999999998 L 27.80000000000003 135.79999999999998 M 27.80000000000003 135.79999999999998 M 29.80000000000003 135.79999999999998 L 33.800000000000026 135.79999999999998 M 33.800000000000026 135.79999999999998 M 35.800000000000026 135.79999999999998 L 39.800000000000026 135.79999999999998 M 39.800000000000026 135.79999999999998 M 41.800000000000026 135.79999999999998 L 45.800000000000026 135.79999999999998 M 45.800000000000026 135.79999999999998 M 47.800000000000026 135.79999999999998 L 51.800000000000026 135.79999999999998 M 51.800000000000026 135.79999999999998 M 53.800000000000026 135.79999999999998 L 57.800000000000026 135.79999999999998 M 57.800000000000026 135.79999999999998 M 59.800000000000026 135.79999999999998 L 63.800000000000026 135.79999999999998 M 63.800000000000026 135.79999999999998 M 65.80000000000003 135.79999999999998 L 69.80000000000003 135.79999999999998 M 69.80000000000003 135.79999999999998 M 71.80000000000003 135.79999999999998 L 75.80000000000003 135.79999999999998 M 75.80000000000003 135.79999999999998 M 77.80000000000003 135.79999999999998 L 81.80000000000003 135.79999999999998 M 81.80000000000003 135.79999999999998 M 83.80000000000003 135.79999999999998 L 87.80000000000003 135.79999999999998 M 87.80000000000003 135.79999999999998 M 89.80000000000003 135.79999999999998 L 93.80000000000003 135.79999999999998 M 93.80000000000003 135.79999999999998 M 95.80000000000003 135.79999999999998 L 99.80000000000003 135.79999999999998 M 99.80000000000003 135.79999999999998 M 101.80000000000003 135.79999999999998 L 105.80000000000003 135.79999999999998 M 105.80000000000003 135.79999999999998 M 107.80000000000003 135.79999999999998 L 111.80000000000003 135.79999999999998 M 111.80000000000003 135.79999999999998 M 113.80000000000003 135.79999999999998 L 117.80000000000003 135.79999999999998 M 117.80000000000003 135.79999999999998 M 119.80000000000003 135.79999999999998 L 123.80000000000003 135.79999999999998 M 123.80000000000003 135.79999999999998 M 125.80000000000003 135.79999999999998 L 129.8 135.79999999999998 M 129.8 135.79999999999998 M 131.8 135.79999999999998 L 135.8 135.79999999999998 M 135.8 135.79999999999998 M 137.8 135.79999999999998 L 141.8 135.79999999999998 M 141.8 135.79999999999998 M 143.8 135.79999999999998 L 147.8 135.79999999999998 M 147.8 135.79999999999998 M 149.8 135.79999999999998 L 153.8 135.79999999999998 M 153.8 135.79999999999998 M 155.8 135.79999999999998 L 159.8 135.79999999999998 M 159.8 135.79999999999998 M 161.8 135.79999999999998 L 165.8 135.79999999999998 M 165.8 135.79999999999998 M 167.8 135.79999999999998 L 171.8 135.79999999999998 M 171.8 135.79999999999998 M 173.8 135.79999999999998 L 177.8 135.79999999999998 M 177.8 135.79999999999998 M 179.8 135.79999999999998 L 183.8 135.79999999999998 M 183.8 135.79999999999998 M 185.8 135.79999999999998 L 189.8 135.79999999999998 M 189.8 135.79999999999998 M 191.8 135.79999999999998 L 195.8 135.79999999999998 M 195.8 135.79999999999998 M 197.8 135.79999999999998 L 201.8 135.79999999999998 M 201.8 135.79999999999998 M 203.8 135.79999999999998 L 207.8 135.79999999999998 M 207.8 135.79999999999998 M 209.8 135.79999999999998 L 213.8 135.79999999999998 M 213.8 135.79999999999998 M 215.8 135.79999999999998 L 219.8 135.79999999999998 M 219.8 135.79999999999998 M 221.8 135.79999999999998 L 225.8 135.79999999999998 M 225.8 135.79999999999998 M 227.8 135.79999999999998 L 231.8 135.79999999999998 M 231.8 135.79999999999998 M 233.8 135.79999999999998 L 237.8 135.79999999999998 M 237.8 135.79999999999998 M 239.8 135.79999999999998 L 243.8 135.79999999999998 M 243.8 135.79999999999998 M 245.8 135.79999999999998 L 249.8 135.79999999999998 M 249.8 135.79999999999998 M 251.8 135.79999999999998 L 255.8 135.79999999999998 M 255.8 135.79999999999998 M 257.8 135.79999999999998 L 261.8 135.79999999999998 M 261.8 135.79999999999998 M 263.8 135.79999999999998 L 267.8 135.79999999999998 M 267.8 135.79999999999998 M 269.8 135.79999999999998 L 273.8 135.79999999999998 M 273.8 135.79999999999998 M 275.8 135.79999999999998 L 279.8 135.79999999999998 M 279.8 135.79999999999998 M 281.8 135.79999999999998 L 285.8 135.79999999999998 M 285.8 135.79999999999998 M 287.8 135.79999999999998 L 291.8 135.79999999999998 M 291.8 135.79999999999998 M 293.8 135.79999999999998 L 297.8 135.79999999999998 M 297.8 135.79999999999998 M 299.8 135.79999999999998 L 303.8 135.79999999999998 M 303.8 135.79999999999998 M 305.8 135.79999999999998 L 309.8 135.79999999999998 M 309.8 135.79999999999998 M 311.8 135.79999999999998 L 315.8 135.79999999999998 M 315.8 135.79999999999998 M 317.8 135.79999999999998 L 321.8 135.79999999999998 M 321.8 135.79999999999998 M 323.8 135.79999999999998 L 327.8 135.79999999999998 M 327.8 135.79999999999998 M 329.8 135.79999999999998 L 333.8 135.79999999999998 M 333.8 135.79999999999998 M 335.8 135.79999999999998 L 339.8 135.79999999999998 M 339.8 135.79999999999998 M 341.8 135.79999999999998 L 345.8 135.79999999999998 M 345.8 135.79999999999998 M 347.8 135.79999999999998 L 351.8 135.79999999999998 M 351.8 135.79999999999998 M 353.8 135.79999999999998 L 357.8 135.79999999999998 M 357.8 135.79999999999998 M 359.8 135.79999999999998 L 363.8 135.79999999999998 M 363.8 135.79999999999998 M 365.8 135.79999999999998 L 369.8 135.79999999999998 M 369.8 135.79999999999998 M 371.8 135.79999999999998 L 375.8 135.79999999999998 M 375.8 135.79999999999998 M 377.8 135.79999999999998 L 381.8 135.79999999999998 M 381.8 135.79999999999998 M 383.8 135.79999999999998 L 387.8 135.79999999999998 M 387.8 135.79999999999998 M 389.8 135.79999999999998 L 393.8 135.79999999999998 M 393.8 135.79999999999998 M 395.8 135.79999999999998 L 399.8 135.79999999999998 M 399.8 135.79999999999998 M 401.8 135.79999999999998 L 405.8 135.79999999999998 M 405.8 135.79999999999998 M 407.8 135.79999999999998 L 411.8 135.79999999999998 M 411.8 135.79999999999998 M 413.8 135.79999999999998 L 417.8 135.79999999999998 M 417.8 135.79999999999998 M 419.8 135.79999999999998 L 423.8 135.79999999999998 M 423.8 135.79999999999998 M 425.8 135.79999999999998 L 429.8 135.79999999999998 M 429.8 135.79999999999998 M 431.8 135.79999999999998 L 435.8 135.79999999999998 M 435.8 135.79999999999998 M 437.8 135.79999999999998 L 441.8 135.79999999999998 M 441.8 135.79999999999998 M 443.8 135.79999999999998 L 447.8 135.79999999999998 M 447.8 135.79999999999998 M 449.8 135.79999999999998 L 453.8 135.79999999999998 M 453.8 135.79999999999998 M 455.8 135.79999999999998 L 459.8 135.79999999999998 M 459.8 135.79999999999998 M 461.8 135.79999999999998 L 465.8 135.79999999999998 M 465.8 135.79999999999998 M 467.8 135.79999999999998 L 471.8 135.79999999999998 M 471.8 135.79999999999998 M 473.8 135.79999999999998 L 477.8 135.79999999999998 M 477.8 135.79999999999998 M 479.8 135.79999999999998 L 483.8 135.79999999999998 M 483.8 135.79999999999998 M 485.8 135.79999999999998 L 489.8 135.79999999999998 M 489.8 135.79999999999998 M 491.8 135.79999999999998 L 495.8 135.79999999999998 M 495.8 135.79999999999998 M 497.8 135.79999999999998 L 501.8 135.79999999999998 M 501.8 135.79999999999998 M 503.8 135.79999999999998 L 507.8 135.79999999999998 M 507.8 135.79999999999998 M 509.8 135.79999999999998 L 513.8 135.79999999999998 M 513.8 135.79999999999998 M 515.8 135.79999999999998 L 519.8 135.79999999999998 M 519.8 135.79999999999998 M 521.8 135.79999999999998 L 525.8 135.79999999999998 M 525.8 135.79999999999998 M 527.8 135.79999999999998 L 531.8 135.79999999999998 M 531.8 135.79999999999998 M 533.8 135.79999999999998 L 537.8 135.79999999999998 M 537.8 135.79999999999998 M 539.8 135.79999999999998 L 543.8 135.79999999999998 M 543.8 135.79999999999998 M 545.8 135.79999999999998 L 549.8 135.79999999999998 M 549.8 135.79999999999998 M 551.8 135.79999999999998 L 555.8 135.79999999999998 M 555.8 135.79999999999998 M 557.8 135.79999999999998 L 561.8 135.79999999999998 M 561.8 135.79999999999998 M 563.8 135.79999999999998 L 567.8 135.79999999999998 M 567.8 135.79999999999998 M 569.8 135.79999999999998 L 573.8 135.79999999999998 M 573.8 135.79999999999998 M 575.8 135.79999999999998 L 579.8 135.79999999999998 M 579.8 135.79999999999998 M 581.8 135.79999999999998 L 585.8 135.79999999999998 M 585.8 135.79999999999998 M 587.8 135.79999999999998 L 591.8 135.79999999999998 M 591.8 135.79999999999998 M 593.8 135.79999999999998 L 597.8 135.79999999999998 M 597.8 135.79999999999998 M 599.8 135.79999999999998 L 603.8 135.79999999999998 M 603.8 135.79999999999998 M 605.8 135.79999999999998 L 609.8 135.79999999999998 M 609.8 135.79999999999998 M 611.8 135.79999999999998 L 615.8 135.79999999999998 M 615.8 135.79999999999998 M 617.8 135.79999999999998 L 621.8 135.79999999999998 M 621.8 135.79999999999998 M 623.8 135.79999999999998 L 627.8 135.79999999999998 M 627.8 135.79999999999998 M 629.8 135.79999999999998 L 633.8 135.79999999999998 M 633.8 135.79999999999998 M 635.8 135.79999999999998 L 639.8 135.79999999999998 M 639.8 135.79999999999998 M 641.8 135.79999999999998 L 645.8 135.79999999999998 M 645.8 135.79999999999998 M 647.8 135.79999999999998 L 651.8 135.79999999999998 M 651.8 135.79999999999998 M 653.8 135.79999999999998 L 657.8 135.79999999999998 M 657.8 135.79999999999998 M 659.8 135.79999999999998 L 663.8 135.79999999999998 M 663.8 135.79999999999998 M 665.8 135.79999999999998 L 669.8 135.79999999999998 M 669.8 135.79999999999998 M 671.8 135.79999999999998 L 675.8 135.79999999999998 M 675.8 135.79999999999998 M 677.8 135.79999999999998 L 681.8 135.79999999999998 M 681.8 135.79999999999998 M 683.8 135.79999999999998 L 687.8 135.79999999999998 M 687.8 135.79999999999998 M 689.8 135.79999999999998 L 693.8 135.79999999999998 M 693.8 135.79999999999998 M 695.8 135.79999999999998 L 699.8 135.79999999999998 M 699.8 135.79999999999998 M 701.8 135.79999999999998 L 705.8 135.79999999999998 M 705.8 135.79999999999998 M 707.8 135.79999999999998 L 711.8 135.79999999999998 M 711.8 135.79999999999998 M 713.8 135.79999999999998 L 717.8 135.79999999999998 M 717.8 135.79999999999998 M 719.8 135.79999999999998 L 723.8 135.79999999999998 M 723.8 135.79999999999998 M 725.8 135.79999999999998 L 729.8 135.79999999999998 M 729.8 135.79999999999998 M 731.8 135.79999999999998 L 735.8 135.79999999999998 M 735.8 135.79999999999998 M 737.8 135.79999999999998 L 741.8 135.79999999999998 M 741.8 135.79999999999998 M 743.8 135.79999999999998 L 747.8 135.79999999999998 M 747.8 135.79999999999998 M 749.8 135.79999999999998 L 753.8 135.79999999999998 M 753.8 135.79999999999998 M 755.8 135.79999999999998 L 759.8 135.79999999999998 M 759.8 135.79999999999998 M 761.8 135.79999999999998 L 765.8 135.79999999999998 M 765.8 135.79999999999998 M 767.8 135.79999999999998 L 771.8 135.79999999999998 M 771.8 135.79999999999998 M 773.8 135.79999999999998 L 777.8 135.79999999999998 M 777.8 135.79999999999998 M 779.8 135.79999999999998 L 783.8 135.79999999999998 M 783.8 135.79999999999998 M 785.8 135.79999999999998 L 789.8 135.79999999999998 M 789.8 135.79999999999998 M 791.8 135.79999999999998 L 795.8 135.79999999999998 M 795.8 135.79999999999998 M 797.8 135.79999999999998 L 801.8 135.79999999999998 M 801.8 135.79999999999998 M 803.8 135.79999999999998 L 807.8 135.79999999999998 M 807.8 135.79999999999998 M 809.8 135.79999999999998 L 813.8 135.79999999999998 M 813.8 135.79999999999998 M 815.8 135.79999999999998 L 819.8 135.79999999999998 M 819.8 135.79999999999998 M 821.8 135.79999999999998 L 825.8 135.79999999999998 M 825.8 135.79999999999998 M 827.8 135.79999999999998 L 831.8 135.79999999999998 M 831.8 135.79999999999998 M 833.8 135.79999999999998 L 837.8 135.79999999999998 M 837.8 135.79999999999998 M 839.8 135.79999999999998 L 843.8 135.79999999999998 M 843.8 135.79999999999998 M 845.8 135.79999999999998 L 849.8 135.79999999999998 M 849.8 135.79999999999998 M 851.8 135.79999999999998 L 855.8 135.79999999999998 M 855.8 135.79999999999998 M 857.8 135.79999999999998 L 861.8 135.79999999999998 M 861.8 135.79999999999998 M 863.8 135.79999999999998 L 867.8 135.79999999999998 M 867.8 135.79999999999998 M 869.8 135.79999999999998 L 873.8 135.79999999999998 M 873.8 135.79999999999998 M 875.8 135.79999999999998 L 879.8 135.79999999999998 M 879.8 135.79999999999998 M 881.8 135.79999999999998 L 885.8 135.79999999999998 M 885.8 135.79999999999998 M 887.8 135.79999999999998 L 891.8 135.79999999999998 M 891.8 135.79999999999998 M 893.8 135.79999999999998 L 897.8 135.79999999999998 M 897.8 135.79999999999998 M 899.8 135.79999999999998 L 903.8 135.79999999999998 M 903.8 135.79999999999998 M 905.8 135.79999999999998 L 909.8 135.79999999999998 M 909.8 135.79999999999998 M 911.8 135.79999999999998 L 911.8000000000001 135.79999999999998 L 911.8000000000001 131.8000000000001 M 911.8000000000001 131.8000000000001 M 911.8000000000001 129.8000000000001 L 911.8000000000001 125.8000000000001 M 911.8000000000001 125.8000000000001 M 911.8000000000001 123.8000000000001 L 911.8000000000001 119.8000000000001 M 911.8000000000001 119.8000000000001 M 911.8000000000001 117.8000000000001 L 911.8000000000001 113.8000000000001 M 911.8000000000001 113.8000000000001 M 911.8000000000001 111.8000000000001 L 911.8000000000001 107.8000000000001 M 911.8000000000001 107.8000000000001 M 911.8000000000001 105.8000000000001 L 911.8000000000001 101.8000000000001 M 911.8000000000001 101.8000000000001 M 911.8000000000001 99.8000000000001 L 911.8000000000001 95.8000000000001 M 911.8000000000001 95.8000000000001 M 911.8000000000001 93.8000000000001 L 911.8000000000001 89.8000000000001 M 911.8000000000001 89.8000000000001 M 911.8000000000001 87.8000000000001 L 911.8000000000001 83.8000000000001 M 911.8000000000001 83.8000000000001 M 911.8000000000001 81.8000000000001 L 911.8000000000001 77.8000000000001 M 911.8000000000001 77.8000000000001 M 911.8000000000001 75.8000000000001 L 911.8000000000001 71.8000000000001 M 911.8000000000001 71.8000000000001 M 911.8000000000001 69.8000000000001 L 911.8000000000001 65.8000000000001 M 911.8000000000001 65.8000000000001 M 911.8000000000001 63.8000000000001 L 911.8000000000001 59.8000000000001 M 911.8000000000001 59.8000000000001 M 911.8000000000001 57.8000000000001 L 911.8000000000001 53.8000000000001 M 911.8000000000001 53.8000000000001 M 911.8000000000001 51.8000000000001 L 911.8000000000001 47.8000000000001 M 911.8000000000001 47.8000000000001 M 911.8000000000001 45.8000000000001 L 911.8000000000001 41.8000000000001 M 911.8000000000001 41.8000000000001 M 911.8000000000001 39.8000000000001 L 911.8000000000001 35.8000000000001 M 911.8000000000001 35.8000000000001 M 911.8000000000001 33.8000000000001 L 911.8000000000001 29.800000000000097 M 911.8000000000001 29.800000000000097 M 911.8000000000001 27.800000000000097 L 911.8000000000001 23.800000000000097 M 911.8000000000001 23.800000000000097 M 911.8000000000001 21.800000000000097 L 911.8000000000001 17.800000000000097 M 911.8000000000001 17.800000000000097 M 911.8000000000001 15.800000000000097 L 911.8000000000001 11.800000000000097 M 911.8000000000001 11.800000000000097 M 911.8000000000001 9.800000000000097 L 911.8000000000001 5.800000000000097 M 911.8000000000001 5.800000000000097 M 911.4000000000002 4.199999999999999 L 907.4000000000002 4.199999999999999 M 907.4000000000002 4.199999999999999 M 905.4000000000002 4.199999999999999 L 901.4000000000002 4.199999999999999 M 901.4000000000002 4.199999999999999 M 899.4000000000002 4.199999999999999 L 895.4000000000002 4.199999999999999 M 895.4000000000002 4.199999999999999 M 893.4000000000002 4.199999999999999 L 889.4000000000002 4.199999999999999 M 889.4000000000002 4.199999999999999 M 887.4000000000002 4.199999999999999 L 883.4000000000002 4.199999999999999 M 883.4000000000002 4.199999999999999 M 881.4000000000002 4.199999999999999 L 877.4000000000002 4.199999999999999 M 877.4000000000002 4.199999999999999 M 875.4000000000002 4.199999999999999 L 871.4000000000002 4.199999999999999 M 871.4000000000002 4.199999999999999 M 869.4000000000002 4.199999999999999 L 865.4000000000002 4.199999999999999 M 865.4000000000002 4.199999999999999 M 863.4000000000002 4.199999999999999 L 859.4000000000002 4.199999999999999 M 859.4000000000002 4.199999999999999 M 857.4000000000002 4.199999999999999 L 853.4000000000002 4.199999999999999 M 853.4000000000002 4.199999999999999 M 851.4000000000002 4.199999999999999 L 847.4000000000002 4.199999999999999 M 847.4000000000002 4.199999999999999 M 845.4000000000002 4.199999999999999 L 841.4000000000002 4.199999999999999 M 841.4000000000002 4.199999999999999 M 839.4000000000002 4.199999999999999 L 835.4000000000002 4.199999999999999 M 835.4000000000002 4.199999999999999 M 833.4000000000002 4.199999999999999 L 829.4000000000002 4.199999999999999 M 829.4000000000002 4.199999999999999 M 827.4000000000002 4.199999999999999 L 823.4000000000002 4.199999999999999 M 823.4000000000002 4.199999999999999 M 821.4000000000002 4.199999999999999 L 817.4000000000002 4.199999999999999 M 817.4000000000002 4.199999999999999 M 815.4000000000002 4.199999999999999 L 811.4000000000002 4.199999999999999 M 811.4000000000002 4.199999999999999 M 809.4000000000002 4.199999999999999 L 805.4000000000002 4.199999999999999 M 805.4000000000002 4.199999999999999 M 803.4000000000002 4.199999999999999 L 799.4000000000002 4.199999999999999 M 799.4000000000002 4.199999999999999 M 797.4000000000002 4.199999999999999 L 793.4000000000002 4.199999999999999 M 793.4000000000002 4.199999999999999 M 791.4000000000002 4.199999999999999 L 787.4000000000002 4.199999999999999 M 787.4000000000002 4.199999999999999 M 785.4000000000002 4.199999999999999 L 781.4000000000002 4.199999999999999 M 781.4000000000002 4.199999999999999 M 779.4000000000002 4.199999999999999 L 775.4000000000002 4.199999999999999 M 775.4000000000002 4.199999999999999 M 773.4000000000002 4.199999999999999 L 769.4000000000002 4.199999999999999 M 769.4000000000002 4.199999999999999 M 767.4000000000002 4.199999999999999 L 763.4000000000002 4.199999999999999 M 763.4000000000002 4.199999999999999 M 761.4000000000002 4.199999999999999 L 757.4000000000002 4.199999999999999 M 757.4000000000002 4.199999999999999 M 755.4000000000002 4.199999999999999 L 751.4000000000002 4.199999999999999 M 751.4000000000002 4.199999999999999 M 749.4000000000002 4.199999999999999 L 745.4000000000002 4.199999999999999 M 745.4000000000002 4.199999999999999 M 743.4000000000002 4.199999999999999 L 739.4000000000002 4.199999999999999 M 739.4000000000002 4.199999999999999 M 737.4000000000002 4.199999999999999 L 733.4000000000002 4.199999999999999 M 733.4000000000002 4.199999999999999 M 731.4000000000002 4.199999999999999 L 727.4000000000002 4.199999999999999 M 727.4000000000002 4.199999999999999 M 725.4000000000002 4.199999999999999 L 721.4000000000002 4.199999999999999 M 721.4000000000002 4.199999999999999 M 719.4000000000002 4.199999999999999 L 715.4000000000002 4.199999999999999 M 715.4000000000002 4.199999999999999 M 713.4000000000002 4.199999999999999 L 709.4000000000002 4.199999999999999 M 709.4000000000002 4.199999999999999 M 707.4000000000002 4.199999999999999 L 703.4000000000002 4.199999999999999 M 703.4000000000002 4.199999999999999 M 701.4000000000002 4.199999999999999 L 697.4000000000002 4.199999999999999 M 697.4000000000002 4.199999999999999 M 695.4000000000002 4.199999999999999 L 691.4000000000002 4.199999999999999 M 691.4000000000002 4.199999999999999 M 689.4000000000002 4.199999999999999 L 685.4000000000002 4.199999999999999 M 685.4000000000002 4.199999999999999 M 683.4000000000002 4.199999999999999 L 679.4000000000002 4.199999999999999 M 679.4000000000002 4.199999999999999 M 677.4000000000002 4.199999999999999 L 673.4000000000002 4.199999999999999 M 673.4000000000002 4.199999999999999 M 671.4000000000002 4.199999999999999 L 667.4000000000002 4.199999999999999 M 667.4000000000002 4.199999999999999 M 665.4000000000002 4.199999999999999 L 661.4000000000002 4.199999999999999 M 661.4000000000002 4.199999999999999 M 659.4000000000002 4.199999999999999 L 655.4000000000002 4.199999999999999 M 655.4000000000002 4.199999999999999 M 653.4000000000002 4.199999999999999 L 649.4000000000002 4.199999999999999 M 649.4000000000002 4.199999999999999 M 647.4000000000002 4.199999999999999 L 643.4000000000002 4.199999999999999 M 643.4000000000002 4.199999999999999 M 641.4000000000002 4.199999999999999 L 637.4000000000002 4.199999999999999 M 637.4000000000002 4.199999999999999 M 635.4000000000002 4.199999999999999 L 631.4000000000002 4.199999999999999 M 631.4000000000002 4.199999999999999 M 629.4000000000002 4.199999999999999 L 625.4000000000002 4.199999999999999 M 625.4000000000002 4.199999999999999 M 623.4000000000002 4.199999999999999 L 619.4000000000002 4.199999999999999 M 619.4000000000002 4.199999999999999 M 617.4000000000002 4.199999999999999 L 613.4000000000002 4.199999999999999 M 613.4000000000002 4.199999999999999 M 611.4000000000002 4.199999999999999 L 607.4000000000002 4.199999999999999 M 607.4000000000002 4.199999999999999 M 605.4000000000002 4.199999999999999 L 601.4000000000002 4.199999999999999 M 601.4000000000002 4.199999999999999 M 599.4000000000002 4.199999999999999 L 595.4000000000002 4.199999999999999 M 595.4000000000002 4.199999999999999 M 593.4000000000002 4.199999999999999 L 589.4000000000002 4.199999999999999 M 589.4000000000002 4.199999999999999 M 587.4000000000002 4.199999999999999 L 583.4000000000002 4.199999999999999 M 583.4000000000002 4.199999999999999 M 581.4000000000002 4.199999999999999 L 577.4000000000002 4.199999999999999 M 577.4000000000002 4.199999999999999 M 575.4000000000002 4.199999999999999 L 571.4000000000002 4.199999999999999 M 571.4000000000002 4.199999999999999 M 569.4000000000002 4.199999999999999 L 565.4000000000002 4.199999999999999 M 565.4000000000002 4.199999999999999 M 563.4000000000002 4.199999999999999 L 559.4000000000002 4.199999999999999 M 559.4000000000002 4.199999999999999 M 557.4000000000002 4.199999999999999 L 553.4000000000002 4.199999999999999 M 553.4000000000002 4.199999999999999 M 551.4000000000002 4.199999999999999 L 547.4000000000002 4.199999999999999 M 547.4000000000002 4.199999999999999 M 545.4000000000002 4.199999999999999 L 541.4000000000002 4.199999999999999 M 541.4000000000002 4.199999999999999 M 539.4000000000002 4.199999999999999 L 535.4000000000002 4.199999999999999 M 535.4000000000002 4.199999999999999 M 533.4000000000002 4.199999999999999 L 529.4000000000002 4.199999999999999 M 529.4000000000002 4.199999999999999 M 527.4000000000002 4.199999999999999 L 523.4000000000002 4.199999999999999 M 523.4000000000002 4.199999999999999 M 521.4000000000002 4.199999999999999 L 517.4000000000002 4.199999999999999 M 517.4000000000002 4.199999999999999 M 515.4000000000002 4.199999999999999 L 511.4000000000002 4.199999999999999 M 511.4000000000002 4.199999999999999 M 509.4000000000002 4.199999999999999 L 505.4000000000002 4.199999999999999 M 505.4000000000002 4.199999999999999 M 503.4000000000002 4.199999999999999 L 499.4000000000002 4.199999999999999 M 499.4000000000002 4.199999999999999 M 497.4000000000002 4.199999999999999 L 493.4000000000002 4.199999999999999 M 493.4000000000002 4.199999999999999 M 491.4000000000002 4.199999999999999 L 487.4000000000002 4.199999999999999 M 487.4000000000002 4.199999999999999 M 485.4000000000002 4.199999999999999 L 481.4000000000002 4.199999999999999 M 481.4000000000002 4.199999999999999 M 479.4000000000002 4.199999999999999 L 475.4000000000002 4.199999999999999 M 475.4000000000002 4.199999999999999 M 473.4000000000002 4.199999999999999 L 469.4000000000002 4.199999999999999 M 469.4000000000002 4.199999999999999 M 467.4000000000002 4.199999999999999 L 463.4000000000002 4.199999999999999 M 463.4000000000002 4.199999999999999 M 461.4000000000002 4.199999999999999 L 457.4000000000002 4.199999999999999 M 457.4000000000002 4.199999999999999 M 455.4000000000002 4.199999999999999 L 451.4000000000002 4.199999999999999 M 451.4000000000002 4.199999999999999 M 449.4000000000002 4.199999999999999 L 445.4000000000002 4.199999999999999 M 445.4000000000002 4.199999999999999 M 443.4000000000002 4.199999999999999 L 439.4000000000002 4.199999999999999 M 439.4000000000002 4.199999999999999 M 437.4000000000002 4.199999999999999 L 433.4000000000002 4.199999999999999 M 433.4000000000002 4.199999999999999 M 431.4000000000002 4.199999999999999 L 427.4000000000002 4.199999999999999 M 427.4000000000002 4.199999999999999 M 425.4000000000002 4.199999999999999 L 421.4000000000002 4.199999999999999 M 421.4000000000002 4.199999999999999 M 419.4000000000002 4.199999999999999 L 415.4000000000002 4.199999999999999 M 415.4000000000002 4.199999999999999 M 413.4000000000002 4.199999999999999 L 409.4000000000002 4.199999999999999 M 409.4000000000002 4.199999999999999 M 407.4000000000002 4.199999999999999 L 403.4000000000002 4.199999999999999 M 403.4000000000002 4.199999999999999 M 401.4000000000002 4.199999999999999 L 397.4000000000002 4.199999999999999 M 397.4000000000002 4.199999999999999 M 395.4000000000002 4.199999999999999 L 391.4000000000002 4.199999999999999 M 391.4000000000002 4.199999999999999 M 389.4000000000002 4.199999999999999 L 385.4000000000002 4.199999999999999 M 385.4000000000002 4.199999999999999 M 383.4000000000002 4.199999999999999 L 379.4000000000002 4.199999999999999 M 379.4000000000002 4.199999999999999 M 377.4000000000002 4.199999999999999 L 373.4000000000002 4.199999999999999 M 373.4000000000002 4.199999999999999 M 371.4000000000002 4.199999999999999 L 367.4000000000002 4.199999999999999 M 367.4000000000002 4.199999999999999 M 365.4000000000002 4.199999999999999 L 361.4000000000002 4.199999999999999 M 361.4000000000002 4.199999999999999 M 359.4000000000002 4.199999999999999 L 355.4000000000002 4.199999999999999 M 355.4000000000002 4.199999999999999 M 353.4000000000002 4.199999999999999 L 349.4000000000002 4.199999999999999 M 349.4000000000002 4.199999999999999 M 347.4000000000002 4.199999999999999 L 343.4000000000002 4.199999999999999 M 343.4000000000002 4.199999999999999 M 341.4000000000002 4.199999999999999 L 337.4000000000002 4.199999999999999 M 337.4000000000002 4.199999999999999 M 335.4000000000002 4.199999999999999 L 331.4000000000002 4.199999999999999 M 331.4000000000002 4.199999999999999 M 329.4000000000002 4.199999999999999 L 325.4000000000002 4.199999999999999 M 325.4000000000002 4.199999999999999 M 323.4000000000002 4.199999999999999 L 319.4000000000002 4.199999999999999 M 319.4000000000002 4.199999999999999 M 317.4000000000002 4.199999999999999 L 313.4000000000002 4.199999999999999 M 313.4000000000002 4.199999999999999 M 311.4000000000002 4.199999999999999 L 307.4000000000002 4.199999999999999 M 307.4000000000002 4.199999999999999 M 305.4000000000002 4.199999999999999 L 301.4000000000002 4.199999999999999 M 301.4000000000002 4.199999999999999 M 299.4000000000002 4.199999999999999 L 295.4000000000002 4.199999999999999 M 295.4000000000002 4.199999999999999 M 293.4000000000002 4.199999999999999 L 289.4000000000002 4.199999999999999 M 289.4000000000002 4.199999999999999 M 287.4000000000002 4.199999999999999 L 283.4000000000002 4.199999999999999 M 283.4000000000002 4.199999999999999 M 281.4000000000002 4.199999999999999 L 277.4000000000002 4.199999999999999 M 277.4000000000002 4.199999999999999 M 275.4000000000002 4.199999999999999 L 271.4000000000002 4.199999999999999 M 271.4000000000002 4.199999999999999 M 269.4000000000002 4.199999999999999 L 265.4000000000002 4.199999999999999 M 265.4000000000002 4.199999999999999 M 263.4000000000002 4.199999999999999 L 259.4000000000002 4.199999999999999 M 259.4000000000002 4.199999999999999 M 257.4000000000002 4.199999999999999 L 253.4000000000002 4.199999999999999 M 253.4000000000002 4.199999999999999 M 251.4000000000002 4.199999999999999 L 247.4000000000002 4.199999999999999 M 247.4000000000002 4.199999999999999 M 245.4000000000002 4.199999999999999 L 241.4000000000002 4.199999999999999 M 241.4000000000002 4.199999999999999 M 239.4000000000002 4.199999999999999 L 235.4000000000002 4.199999999999999 M 235.4000000000002 4.199999999999999 M 233.4000000000002 4.199999999999999 L 229.4000000000002 4.199999999999999 M 229.4000000000002 4.199999999999999 M 227.4000000000002 4.199999999999999 L 223.4000000000002 4.199999999999999 M 223.4000000000002 4.199999999999999 M 221.4000000000002 4.199999999999999 L 217.4000000000002 4.199999999999999 M 217.4000000000002 4.199999999999999 M 215.4000000000002 4.199999999999999 L 211.4000000000002 4.199999999999999 M 211.4000000000002 4.199999999999999 M 209.4000000000002 4.199999999999999 L 205.4000000000002 4.199999999999999 M 205.4000000000002 4.199999999999999 M 203.4000000000002 4.199999999999999 L 199.4000000000002 4.199999999999999 M 199.4000000000002 4.199999999999999 M 197.4000000000002 4.199999999999999 L 193.4000000000002 4.199999999999999 M 193.4000000000002 4.199999999999999 M 191.4000000000002 4.199999999999999 L 187.4000000000002 4.199999999999999 M 187.4000000000002 4.199999999999999 M 185.4000000000002 4.199999999999999 L 181.4000000000002 4.199999999999999 M 181.4000000000002 4.199999999999999 M 179.4000000000002 4.199999999999999 L 175.4000000000002 4.199999999999999 M 175.4000000000002 4.199999999999999 M 173.4000000000002 4.199999999999999 L 169.4000000000002 4.199999999999999 M 169.4000000000002 4.199999999999999 M 167.4000000000002 4.199999999999999 L 163.4000000000002 4.199999999999999 M 163.4000000000002 4.199999999999999 M 161.4000000000002 4.199999999999999 L 157.4000000000002 4.199999999999999 M 157.4000000000002 4.199999999999999 M 155.4000000000002 4.199999999999999 L 151.4000000000002 4.199999999999999 M 151.4000000000002 4.199999999999999 M 149.4000000000002 4.199999999999999 L 145.4000000000002 4.199999999999999 M 145.4000000000002 4.199999999999999 M 143.4000000000002 4.199999999999999 L 139.4000000000002 4.199999999999999 M 139.4000000000002 4.199999999999999 M 137.4000000000002 4.199999999999999 L 133.4000000000002 4.199999999999999 M 133.4000000000002 4.199999999999999 M 131.4000000000002 4.199999999999999 L 127.4000000000002 4.199999999999999 M 127.4000000000002 4.199999999999999 M 125.4000000000002 4.199999999999999 L 121.4000000000002 4.199999999999999 M 121.4000000000002 4.199999999999999 M 119.4000000000002 4.199999999999999 L 115.4000000000002 4.199999999999999 M 115.4000000000002 4.199999999999999 M 113.4000000000002 4.199999999999999 L 109.4000000000002 4.199999999999999 M 109.4000000000002 4.199999999999999 M 107.4000000000002 4.199999999999999 L 103.4000000000002 4.199999999999999 M 103.4000000000002 4.199999999999999 M 101.4000000000002 4.199999999999999 L 97.4000000000002 4.199999999999999 M 97.4000000000002 4.199999999999999 M 95.4000000000002 4.199999999999999 L 91.4000000000002 4.199999999999999 M 91.4000000000002 4.199999999999999 M 89.4000000000002 4.199999999999999 L 85.4000000000002 4.199999999999999 M 85.4000000000002 4.199999999999999 M 83.4000000000002 4.199999999999999 L 79.4000000000002 4.199999999999999 M 79.4000000000002 4.199999999999999 M 77.4000000000002 4.199999999999999 L 73.4000000000002 4.199999999999999 M 73.4000000000002 4.199999999999999 M 71.4000000000002 4.199999999999999 L 67.4000000000002 4.199999999999999 M 67.4000000000002 4.199999999999999 M 65.4000000000002 4.199999999999999 L 61.400000000000205 4.199999999999999 M 61.400000000000205 4.199999999999999 M 59.400000000000205 4.199999999999999 L 55.400000000000205 4.199999999999999 M 55.400000000000205 4.199999999999999 M 53.400000000000205 4.199999999999999 L 49.400000000000205 4.199999999999999 M 49.400000000000205 4.199999999999999 M 47.400000000000205 4.199999999999999 L 43.400000000000205 4.199999999999999 M 43.400000000000205 4.199999999999999 M 41.400000000000205 4.199999999999999 L 37.400000000000205 4.199999999999999 M 37.400000000000205 4.199999999999999 M 35.400000000000205 4.199999999999999 L 31.400000000000205 4.199999999999999 M 31.400000000000205 4.199999999999999 M 29.400000000000205 4.199999999999999 L 28.200000000000003 4.199999999999999 Z" stroke-miterlimit="10" stroke-width="2" opacity="0"></path></g></g></g></g></g><g transform="matrix(1,0,0,1,535.5,55.5)"><g transform="translate(0,0)"><g transform="translate(-540,-202) translate(4.5,146.5) matrix(1,0,0,1,0,0)"><g><path fill="none" stroke="#000000" d="M 540 200 L 540 60" stroke-miterlimit="10" stroke-width="2"></path></g></g></g></g><g transform="matrix(1,0,0,1,55.5,82.5)"><g transform="translate(0,0)"><g transform="translate(-60,-87) translate(4.5,4.5) matrix(1,0,0,1,0,0)"><g><path fill="none" stroke="#000000" d="M 60 87 L 540.0374985352706 87.00000000000023" stroke-miterlimit="10" stroke-width="2"></path></g></g></g></g><g transform="matrix(1,0,0,1,55.5,167.5)"><g transform="translate(0,0)"><g transform="translate(-61,-173) translate(5.5,5.5) matrix(1,0,0,1,0,0)"><g><path fill="none" stroke="#000000" d="M 60 173 L 1000 172" stroke-miterlimit="10" stroke-width="2"></path></g></g></g></g><g transform="matrix(1,0,0,1,294.5,83.33940085752039)"><g transform="translate(0,0)"><g transform="translate(-299,-199) translate(4.5,115.66059914247961) matrix(1,0,0,1,0,0)"><g><path fill="none" stroke="#000000" d="M 299 200 L 299 87.83940085752039" stroke-miterlimit="10" stroke-width="2"></path></g></g></g></g><g transform="matrix(1,0,0,1,55.5,108.5)"><g transform="translate(0,0)"><g transform="translate(-57,-113) translate(1.5,4.5) matrix(1,0,0,1,0,0)"><g><path fill="none" stroke="#000000" d="M 60 113 L 300.00208332429116 113.00000000000031" stroke-miterlimit="10" stroke-width="2"></path></g></g></g></g><g transform="matrix(1,0,0,1,134.5,110.5)"><g transform="translate(0,0)"><g transform="translate(-139,-199) translate(4.5,88.5) matrix(1,0,0,1,0,0)"><g><path fill="none" stroke="#000000" d="M 139 200 L 139 115" stroke-miterlimit="10" stroke-width="2"></path></g></g></g></g><g transform="matrix(1,0,0,1,213.5,111.5)"><g transform="translate(0,0)"><g transform="translate(-218,-199) translate(4.5,87.5) matrix(1,0,0,1,0,0)"><g><path fill="none" stroke="#000000" d="M 218 200 L 218 116" stroke-miterlimit="10" stroke-width="2"></path></g></g></g></g><g transform="matrix(1,0,0,1,375.5,86.42663019783426)"><g transform="translate(0,0)"><g transform="translate(-380,-200) translate(4.5,113.57336980216574) matrix(1,0,0,1,0,0)"><g><path fill="none" stroke="#000000" d="M 380 200 L 380.00000000000006 90.92663019783426" stroke-miterlimit="10" stroke-width="2"></path></g></g></g></g><g transform="matrix(1,0,0,1,454.5,86.48165292025384)"><g transform="translate(0,0)"><g transform="translate(-459,-199) translate(4.5,112.51834707974616) matrix(1,0,0,1,0,0)"><g><path fill="none" stroke="#000000" d="M 459 200 L 459 90.98165292025384" stroke-miterlimit="10" stroke-width="2"></path></g></g></g></g><g transform="matrix(1,0,0,1,733.5,55.5)"><g transform="translate(0,0)"><g transform="translate(-738,-200) translate(4.5,144.5) matrix(1,0,0,1,0,0)"><g><path fill="none" stroke="#000000" d="M 738 200 L 740 60" stroke-miterlimit="10" stroke-width="2"></path></g></g></g></g><g transform="matrix(1,0,0,1,735.5,80.5)"><g transform="translate(0,0)"><g transform="translate(-740,-86) translate(4.5,5.5) matrix(1,0,0,1,0,0)"><g><path fill="none" stroke="#000000" d="M 740 86 L 1000 85" stroke-miterlimit="10" stroke-width="2"></path></g></g></g></g><g transform="scale(1,1) matrix(1,0,0,1,67,66.5) translate(2,0)"><text fill="#000000" stroke="none" font-family="Arial" font-size="12px" font-style="normal" font-weight="normal" text-decoration="none" x="84.5" y="11">Telemetry Transfer Frame Secondary Header (32 bits)</text></g><g transform="scale(1,1) matrix(1,0,0,1,65,93.5) translate(2,0)"><text fill="#000000" stroke="none" font-family="Arial" font-size="12px" font-style="normal" font-weight="normal" text-decoration="none" x="40" y="11">Frame Identification (8 bits)</text></g><g transform="scale(1,1) matrix(1,0,0,1,66,131.5) translate(2,0)"><text fill="#000000" stroke="none" font-family="Arial" font-size="12px" font-style="normal" font-weight="normal" text-decoration="none" x="11" y="11">Version&#160;</text><text fill="#000000" stroke="none" font-family="Arial" font-size="12px" font-style="normal" font-weight="normal" text-decoration="none" x="11.5" y="25">Number</text></g><g transform="scale(1,1) matrix(1,0,0,1,145,124) translate(2,0)"><text fill="#000000" stroke="none" font-family="Arial" font-size="12px" font-style="normal" font-weight="normal" text-decoration="none" x="14.5" y="11">Virtual&#160;</text><text fill="#000000" stroke="none" font-family="Arial" font-size="12px" font-style="normal" font-weight="normal" text-decoration="none" x="10" y="25">Channel</text><text fill="#000000" stroke="none" font-family="Arial" font-size="12px" font-style="normal" font-weight="normal" text-decoration="none" x="27.5" y="39">ID</text></g><g transform="scale(1,1) matrix(1,0,0,1,225,136.5) translate(2,0)"><text fill="#000000" stroke="none" font-family="Arial" font-size="12px" font-style="normal" font-weight="normal" text-decoration="none" x="17.5" y="11">Spare</text></g><g transform="scale(1,1) matrix(1,0,0,1,305,111) translate(2,0)"><text fill="#000000" stroke="none" font-family="Arial" font-size="12px" font-style="normal" font-weight="normal" text-decoration="none" x="14" y="11">Master</text><text fill="#000000" stroke="none" font-family="Arial" font-size="12px" font-style="normal" font-weight="normal" text-decoration="none" x="15" y="25">Frame</text><text fill="#000000" stroke="none" font-family="Arial" font-size="12px" font-style="normal" font-weight="normal" text-decoration="none" x="16" y="39">Count</text></g><g transform="scale(1,1) matrix(1,0,0,1,388,103) translate(2,0)"><text fill="#000000" stroke="none" font-family="Arial" font-size="12px" font-style="normal" font-weight="normal" text-decoration="none" x="11.5" y="11">Virtual</text><text fill="#000000" stroke="none" font-family="Arial" font-size="12px" font-style="normal" font-weight="normal" text-decoration="none" x="5.5" y="25">Channel</text><text fill="#000000" stroke="none" font-family="Arial" font-size="12px" font-style="normal" font-weight="normal" text-decoration="none" x="11.5" y="39">Frame</text><text fill="#000000" stroke="none" font-family="Arial" font-size="12px" font-style="normal" font-weight="normal" text-decoration="none" x="12.5" y="53">Count</text></g><g transform="scale(1,1) matrix(1,0,0,1,467,110.5) translate(2,0)"><text fill="#000000" stroke="none" font-family="Arial" font-size="12px" font-style="normal" font-weight="normal" text-decoration="none" x="17" y="11">First </text><text fill="#000000" stroke="none" font-family="Arial" font-size="12px" font-style="normal" font-weight="normal" text-decoration="none" x="9.5" y="25">Header</text><text fill="#000000" stroke="none" font-family="Arial" font-size="12px" font-style="normal" font-weight="normal" text-decoration="none" x="10.5" y="39">Pointer</text></g><g transform="scale(1,1) matrix(1,0,0,1,556,105) translate(2,0)"><text fill="#000000" stroke="none" font-family="Arial" font-size="12px" font-style="normal" font-weight="normal" text-decoration="none" x="65.5" y="11">Data</text></g><g transform="scale(1,1) matrix(1,0,0,1,745,65) translate(2,0)"><text fill="#000000" stroke="none" font-family="Arial" font-size="12px" font-style="normal" font-weight="normal" text-decoration="none" x="33.5" y="11">Telemetry Transfer Frame Trailer</text></g><g transform="matrix(1,0,0,1,895.5,82.46018400581148)"><g transform="translate(0,0)"><g transform="translate(-900,-201) translate(4.5,118.53981599418852) matrix(1,0,0,1,0,0)"><g><path fill="none" stroke="#000000" d="M 900 200 L 900.0000000000001 86.96018400581148" stroke-miterlimit="10" stroke-width="2"></path></g></g></g></g><g transform="matrix(1,0,0,1,734.5,103.5)"><g transform="translate(0,0)"><g transform="translate(-739,-108) translate(4.5,4.5) matrix(1,0,0,1,0,0)"><g><path fill="none" stroke="#000000" d="M 739 108 L 898.0282993683829 108" stroke-miterlimit="10" stroke-width="2"></path></g></g></g></g><g transform="matrix(1,0,0,1,795.5,103.36423061590033)"><g transform="translate(0,0)"><g transform="translate(-800,-202) translate(4.5,98.63576938409967) matrix(1,0,0,1,0,0)"><g><path fill="none" stroke="#000000" d="M 800 200 L 800 107.86423061590033" stroke-miterlimit="10" stroke-width="2"></path></g></g></g></g><g transform="matrix(1,0,0,1,849.5,102.5)"><g transform="translate(0,0)"><g transform="translate(-854,-198) translate(4.5,95.5) matrix(1,0,0,1,0,0)"><g><path fill="none" stroke="#000000" d="M 854 200 L 854 107" stroke-miterlimit="10" stroke-width="2"></path></g></g></g></g><g transform="scale(1,1) matrix(1,0,0,1,745,91) translate(2,0)"><text fill="#000000" stroke="none" font-family="Arial" font-size="12px" font-style="normal" font-weight="normal" text-decoration="none" x="36" y="11">Frame Status&#160;</text></g><g transform="scale(1,1) matrix(1,0,0,1,911,114.5) translate(2,0)"><text fill="#000000" stroke="none" font-family="Arial" font-size="12px" font-style="normal" font-weight="normal" text-decoration="none" x="20" y="11">Time</text></g><g transform="scale(1,1) matrix(1,0,0,1,748,179.5) translate(2,0)"><text fill="#000000" stroke="none" font-family="Arial" font-size="12px" font-style="normal" font-weight="normal" text-decoration="none" x="14.5" y="11">4</text></g><g transform="scale(1,1) matrix(1,0,0,1,806,180) translate(2,0)"><text fill="#000000" stroke="none" font-family="Arial" font-size="12px" font-style="normal" font-weight="normal" text-decoration="none" x="17" y="11">2</text></g><g transform="scale(1,1) matrix(1,0,0,1,859,178.5) translate(2,0)"><text fill="#000000" stroke="none" font-family="Arial" font-size="12px" font-style="normal" font-weight="normal" text-decoration="none" x="14.5" y="11">2</text></g><g transform="scale(1,1) matrix(1,0,0,1,907,179) translate(2,0)"><text fill="#000000" stroke="none" font-family="Arial" font-size="12px" font-style="normal" font-weight="normal" text-decoration="none" x="29" y="11">0-64</text></g><g transform="scale(1,1) matrix(1,0,0,1,544,179) translate(2,0)"><text fill="#000000" stroke="none" font-family="Arial" font-size="12px" font-style="normal" font-weight="normal" text-decoration="none" x="72" y="11">0 - 2008</text></g><g transform="scale(1,1) matrix(1,0,0,1,465,179.5) translate(2,0)"><text fill="#000000" stroke="none" font-family="Arial" font-size="12px" font-style="normal" font-weight="normal" text-decoration="none" x="31" y="11">8</text></g><g transform="scale(1,1) matrix(1,0,0,1,384,181) translate(2,0)"><text fill="#000000" stroke="none" font-family="Arial" font-size="12px" font-style="normal" font-weight="normal" text-decoration="none" x="31.5" y="11">8</text></g><g transform="scale(1,1) matrix(1,0,0,1,302,178.5) translate(2,0)"><text fill="#000000" stroke="none" font-family="Arial" font-size="12px" font-style="normal" font-weight="normal" text-decoration="none" x="32" y="11">8</text></g><g transform="scale(1,1) matrix(1,0,0,1,223,181) translate(2,0)"><text fill="#000000" stroke="none" font-family="Arial" font-size="12px" font-style="normal" font-weight="normal" text-decoration="none" x="31.5" y="11">3</text></g><g transform="scale(1,1) matrix(1,0,0,1,143,180) translate(2,0)"><text fill="#000000" stroke="none" font-family="Arial" font-size="12px" font-style="normal" font-weight="normal" text-decoration="none" x="30" y="11">3</text></g><g transform="scale(1,1) matrix(1,0,0,1,61,181.5) translate(2,0)"><text fill="#000000" stroke="none" font-family="Arial" font-size="12px" font-style="normal" font-weight="normal" text-decoration="none" x="34" y="11">2</text></g><g transform="scale(1,1) matrix(1,0,0,1,743,128) translate(2,0)"><text fill="#000000" stroke="none" font-family="Arial" font-size="12px" font-style="normal" font-weight="normal" text-decoration="none" x="10.5" y="11">Time&#160;</text><text fill="#000000" stroke="none" font-family="Arial" font-size="12px" font-style="normal" font-weight="normal" text-decoration="none" x="13.5" y="25">Flag</text></g><g transform="scale(1,1) matrix(1,0,0,1,806,136) translate(2,0)"><text fill="#000000" stroke="none" font-family="Arial" font-size="12px" font-style="normal" font-weight="normal" text-decoration="none" x="3" y="11">Spare</text></g><g transform="scale(1,1) matrix(1,0,0,1,859,126) translate(2,0)"><text fill="#000000" stroke="none" font-family="Arial" font-size="12px" font-style="normal" font-weight="normal" text-decoration="none" x="10" y="11">TC</text><text fill="#000000" stroke="none" font-family="Arial" font-size="12px" font-style="normal" font-weight="normal" text-decoration="none" x="3" y="25">count</text></g></g></svg>